<?xml version="1.0" encoding="UTF-8" standalone="no" ?>
<!DOCTYPE svg PUBLIC "-//W3C//DTD SVG 1.1//EN" "http://www.w3.org/Graphics/SVG/1.1/DTD/svg11.dtd">
<svg xmlns="http://www.w3.org/2000/svg" xmlns:xlink="http://www.w3.org/1999/xlink" version="1.1" width="1080" height="1080" viewBox="0 0 1080 1080" xml:space="preserve">
<desc>Created with Fabric.js 5.2.4</desc>
<defs>
</defs>
<g transform="matrix(1 0 0 1 540 540)" id="de6d5482-57b4-40a6-814e-963bae123625"  >
<rect style="stroke: none; stroke-width: 1; stroke-dasharray: none; stroke-linecap: butt; stroke-dashoffset: 0; stroke-linejoin: miter; stroke-miterlimit: 4; fill: rgb(255,255,255); fill-rule: nonzero; opacity: 1; visibility: hidden;" vector-effect="non-scaling-stroke"  x="-540" y="-540" rx="0" ry="0" width="1080" height="1080" />
</g>
<g transform="matrix(1 0 0 1 540 540)" id="3ca1dd90-b5ed-4013-8d22-8bae062f3db9"  >
</g>
<g transform="matrix(1 0 0 1 857.11 507.83)"  >
<g style="opacity: 1;" vector-effect="non-scaling-stroke"   >
		<g transform="matrix(1 0 0 1 104.15 -64.25)"  >
<path style="stroke: none; stroke-width: 1; stroke-dasharray: none; stroke-linecap: butt; stroke-dashoffset: 0; stroke-linejoin: miter; stroke-miterlimit: 4; fill: rgb(222,195,247); fill-rule: nonzero; opacity: 1;" vector-effect="non-scaling-stroke"  transform=" translate(-771.03, -517.98)" d="M 743.632 544.004 L 799.767 491.948 L 742.292 529.989 L 743.632 544.004 Z" stroke-linecap="round" />
</g>
		<g transform="matrix(1 0 0 1 92.38 -73.04)"  >
<path style="stroke: none; stroke-width: 1; stroke-dasharray: none; stroke-linecap: butt; stroke-dashoffset: 0; stroke-linejoin: miter; stroke-miterlimit: 4; fill: rgb(255,255,255); fill-rule: nonzero; opacity: 1;" vector-effect="non-scaling-stroke"  transform=" translate(-759.27, -509.18)" d="M 736.783 526.413 L 799.767 491.948 L 718.766 514.686 L 736.783 526.413 Z" stroke-linecap="round" />
</g>
		<g transform="matrix(1 0 0 1 104.15 -64.82)"  >
<path style="stroke: none; stroke-width: 1; stroke-dasharray: none; stroke-linecap: butt; stroke-dashoffset: 0; stroke-linejoin: miter; stroke-miterlimit: 4; fill: rgb(255,255,255); fill-rule: nonzero; opacity: 1;" vector-effect="non-scaling-stroke"  transform=" translate(-771.03, -517.4)" d="M 742.292 529.989 L 762.245 542.86 L 799.767 491.948 L 742.292 529.989 Z" stroke-linecap="round" />
</g>
		<g transform="matrix(1 0 0 1 101.39 -64.25)"  >
<path style="stroke: none; stroke-width: 1; stroke-dasharray: none; stroke-linecap: butt; stroke-dashoffset: 0; stroke-linejoin: miter; stroke-miterlimit: 4; fill: rgb(230,209,249); fill-rule: nonzero; opacity: 1;" vector-effect="non-scaling-stroke"  transform=" translate(-768.28, -517.98)" d="M 736.783 526.413 L 743.632 544.004 L 742.292 529.989 L 799.767 491.948 L 736.783 526.413 Z" stroke-linecap="round" />
</g>
		<g transform="matrix(1 0 0 1 -0.33 0)"  >
<path style="stroke: none; stroke-width: 1; stroke-dasharray: none; stroke-linecap: butt; stroke-dashoffset: 0; stroke-linejoin: miter; stroke-miterlimit: 4; fill: rgb(255,255,255); fill-rule: nonzero; opacity: 0.09;" vector-effect="non-scaling-stroke"  transform=" translate(-666.56, -582.22)" d="M 554.995 678.899 C 554.846 678.899 554.548 678.756 554.399 678.613 C 553.804 677.898 553.059 677.183 552.463 676.468 C 552.166 676.182 552.166 675.753 552.612 675.467 C 552.91 675.181 553.357 675.181 553.655 675.61 C 554.25 676.325 554.846 677.04 555.59 677.755 C 555.888 678.041 555.888 678.47 555.59 678.756 C 555.441 678.899 555.293 678.899 554.995 678.899 Z M 548.592 671.176 C 548.294 671.176 548.145 671.033 547.997 670.89 C 547.401 670.032 546.805 669.317 546.359 668.459 C 546.21 668.173 546.21 667.744 546.656 667.458 C 546.954 667.315 547.401 667.315 547.699 667.744 C 548.294 668.602 548.741 669.317 549.337 670.175 C 549.634 670.461 549.485 670.89 549.188 671.176 C 548.89 671.033 548.741 671.176 548.592 671.176 Z M 543.232 662.453 C 542.934 662.453 542.636 662.31 542.636 662.024 C 542.189 661.166 541.743 660.307 541.296 659.449 C 541.147 659.02 541.296 658.734 541.594 658.448 C 541.892 658.305 542.338 658.448 542.636 658.734 C 543.083 659.592 543.53 660.45 543.976 661.309 C 544.125 661.595 543.976 662.024 543.678 662.31 C 543.53 662.453 543.381 662.453 543.232 662.453 Z M 539.211 653.3 C 538.914 653.3 538.616 653.157 538.467 652.871 C 538.169 652.013 537.871 651.012 537.574 650.154 C 537.425 649.725 537.722 649.439 538.02 649.296 C 538.467 649.153 538.765 649.439 538.914 649.725 C 539.211 650.583 539.509 651.584 539.807 652.442 C 539.956 652.871 539.807 653.157 539.36 653.3 C 539.36 653.3 539.36 653.3 539.211 653.3 Z M 536.382 643.718 C 536.085 643.718 535.787 643.432 535.638 643.146 C 535.489 642.145 535.191 641.287 535.042 640.286 C 535.042 639.857 535.191 639.571 535.638 639.428 C 536.085 639.428 536.382 639.571 536.531 640 C 536.68 641.001 536.829 641.859 537.127 642.717 C 537.276 643.146 536.978 643.432 536.531 643.575 C 536.531 643.718 536.382 643.718 536.382 643.718 Z M 534.893 633.85 C 534.447 633.85 534.149 633.564 534.149 633.135 C 534 632.134 534 631.276 534 630.275 C 534 629.846 534.298 629.56 534.744 629.56 C 535.191 629.56 535.489 629.846 535.489 630.275 C 535.489 631.276 535.638 632.134 535.638 633.135 C 535.638 633.421 535.34 633.707 534.893 633.85 Z M 534.744 623.84 C 534.298 623.84 534 623.411 534 623.124 C 534 622.123 534.149 621.265 534.298 620.264 C 534.298 619.835 534.744 619.549 535.042 619.692 C 535.489 619.692 535.787 620.121 535.787 620.407 C 535.638 621.408 535.638 622.266 535.489 623.267 C 535.489 623.554 535.191 623.84 534.744 623.84 Z M 536.085 613.829 L 535.936 613.829 C 535.489 613.686 535.34 613.4 535.34 612.971 L 535.34 612.685 C 535.489 611.827 535.787 610.969 535.936 610.11 C 536.085 609.681 536.382 609.538 536.829 609.538 C 537.276 609.681 537.425 609.967 537.425 610.396 C 537.276 611.255 536.978 612.113 536.829 612.971 L 536.829 613.257 C 536.829 613.686 536.531 613.829 536.085 613.829 Z M 538.914 604.247 C 538.765 604.247 538.765 604.247 538.616 604.247 C 538.169 604.104 538.02 603.675 538.169 603.389 C 538.467 602.531 538.914 601.53 539.211 600.672 C 539.36 600.243 539.807 600.1 540.105 600.243 C 540.552 600.386 540.7 600.815 540.552 601.101 C 540.254 601.959 539.807 602.817 539.509 603.818 C 539.509 603.961 539.211 604.247 538.914 604.247 Z M 543.083 595.094 C 542.934 595.094 542.785 595.094 542.785 594.951 C 542.487 594.808 542.338 594.379 542.487 593.95 C 542.934 593.092 543.381 592.234 543.976 591.376 C 544.125 591.09 544.572 590.947 545.019 591.09 C 545.316 591.233 545.465 591.662 545.316 592.091 C 544.87 592.949 544.423 593.807 543.976 594.522 C 543.53 594.951 543.232 595.094 543.083 595.094 Z M 548.294 586.514 C 548.145 586.514 547.997 586.514 547.848 586.371 C 547.55 586.084 547.401 585.655 547.699 585.369 C 548.294 584.511 548.89 583.796 549.485 583.081 C 549.783 582.795 550.23 582.652 550.528 582.938 C 550.826 583.224 550.974 583.653 550.677 583.939 C 550.081 584.654 549.485 585.512 548.89 586.228 C 548.89 586.371 548.592 586.514 548.294 586.514 Z M 554.846 578.648 C 554.697 578.648 554.548 578.648 554.399 578.505 C 554.101 578.219 554.101 577.79 554.399 577.504 C 555.144 576.789 555.739 576.074 556.484 575.359 C 556.782 575.073 557.228 575.073 557.526 575.359 C 557.824 575.645 557.824 576.074 557.526 576.36 C 556.782 577.075 556.186 577.79 555.441 578.362 C 555.293 578.505 554.995 578.648 554.846 578.648 Z M 562.291 571.64 C 562.142 571.64 561.844 571.497 561.695 571.354 C 561.397 571.068 561.397 570.639 561.844 570.353 C 562.589 569.781 563.333 569.066 564.226 568.494 C 564.524 568.208 564.971 568.351 565.269 568.637 C 565.567 568.923 565.418 569.352 565.12 569.638 C 564.375 570.21 563.631 570.782 562.886 571.497 C 562.589 571.64 562.44 571.64 562.291 571.64 Z M 570.629 565.634 C 570.331 565.634 570.182 565.491 570.034 565.348 C 569.885 565.062 569.885 564.633 570.331 564.347 C 571.225 563.775 571.969 563.346 572.863 562.774 C 573.16 562.631 573.607 562.631 573.905 563.06 C 574.054 563.346 574.054 563.775 573.607 564.061 C 572.714 564.49 571.969 565.062 571.076 565.491 C 570.927 565.634 570.778 565.634 570.629 565.634 Z M 579.861 560.914 C 579.563 560.914 579.265 560.771 579.116 560.485 C 578.967 560.056 579.116 559.77 579.414 559.484 L 579.861 559.341 C 580.605 559.055 581.35 558.626 582.243 558.34 C 582.69 558.197 582.988 558.34 583.286 558.769 C 583.434 559.198 583.286 559.484 582.839 559.77 C 582.094 560.056 581.35 560.342 580.605 560.771 L 580.159 560.914 C 580.01 560.914 579.861 560.914 579.861 560.914 Z M 589.539 557.339 C 589.242 557.339 588.944 557.196 588.795 556.91 C 588.646 556.481 588.944 556.195 589.242 556.052 C 590.135 555.766 591.177 555.48 592.071 555.194 C 592.517 555.051 592.815 555.337 592.964 555.623 C 593.113 556.052 592.815 556.338 592.517 556.481 C 591.624 556.767 590.582 557.053 589.688 557.339 L 589.539 557.339 Z M 599.664 554.765 C 599.367 554.765 599.069 554.479 598.92 554.193 C 598.771 553.764 599.069 553.478 599.516 553.335 C 600.558 553.192 601.451 552.906 602.494 552.763 C 602.94 552.62 603.238 552.906 603.387 553.335 C 603.387 553.764 603.238 554.05 602.791 554.193 C 601.749 554.336 600.856 554.479 599.813 554.765 C 599.664 554.765 599.664 554.765 599.664 554.765 Z M 609.938 553.049 C 609.641 553.049 609.194 552.763 609.194 552.477 C 609.194 552.048 609.492 551.762 609.79 551.619 C 610.832 551.476 611.725 551.333 612.768 551.333 C 613.214 551.333 613.512 551.619 613.661 551.905 C 613.661 552.334 613.363 552.62 613.065 552.763 C 612.023 552.906 610.981 552.906 609.938 553.049 Z M 620.213 552.048 C 619.766 552.048 619.468 551.762 619.468 551.333 C 619.468 550.904 619.766 550.618 620.213 550.618 C 621.255 550.475 622.148 550.475 623.19 550.475 C 623.637 550.475 623.935 550.761 623.935 551.19 C 623.935 551.619 623.637 551.905 623.19 551.905 C 622.297 551.905 621.255 552.048 620.213 552.048 C 620.361 552.048 620.213 552.048 620.213 552.048 Z M 630.635 551.476 C 630.189 551.476 629.891 551.19 629.891 550.761 C 629.891 550.332 630.189 550.046 630.635 550.046 L 633.613 549.903 C 634.06 549.903 634.358 550.189 634.358 550.618 C 634.358 551.047 634.06 551.333 633.613 551.333 L 630.635 551.476 Z M 641.058 551.047 C 640.612 551.047 640.314 550.761 640.314 550.332 C 640.314 549.903 640.612 549.617 641.058 549.617 L 644.036 549.474 C 644.483 549.474 644.781 549.76 644.781 550.189 C 644.781 550.618 644.483 550.904 644.036 550.904 L 641.058 551.047 Z M 651.481 550.475 C 651.035 550.475 650.737 550.189 650.737 549.76 C 650.737 549.331 651.035 549.045 651.481 549.045 C 652.524 549.045 653.417 548.902 654.459 548.902 C 654.906 548.902 655.204 549.188 655.204 549.617 C 655.204 550.046 654.906 550.332 654.459 550.332 C 653.566 550.475 652.524 550.475 651.481 550.475 Z M 661.904 549.903 C 661.458 549.903 661.16 549.617 661.16 549.188 C 661.16 548.759 661.458 548.472 661.904 548.472 C 662.947 548.329 663.84 548.329 664.882 548.186 C 665.329 548.186 665.627 548.472 665.627 548.759 C 665.627 549.188 665.329 549.474 665.031 549.474 C 663.989 549.617 662.947 549.76 661.904 549.903 Z M 672.327 548.759 C 672.029 548.759 671.583 548.472 671.583 548.186 C 671.583 547.757 671.732 547.471 672.178 547.328 C 673.221 547.185 674.114 547.042 675.156 546.899 C 675.603 546.899 675.901 547.042 676.05 547.471 C 676.05 547.9 675.901 548.186 675.454 548.329 C 674.412 548.472 673.369 548.615 672.327 548.759 Z M 682.452 546.899 C 682.154 546.899 681.857 546.613 681.708 546.327 C 681.559 545.898 681.857 545.612 682.303 545.469 C 683.197 545.183 684.239 545.04 685.132 544.754 C 685.579 544.611 685.877 544.897 686.026 545.326 C 686.175 545.755 685.877 546.041 685.43 546.184 C 684.537 546.47 683.495 546.613 682.452 546.899 C 682.601 546.899 682.601 546.899 682.452 546.899 Z M 692.429 544.039 C 692.131 544.039 691.833 543.896 691.684 543.61 C 691.535 543.181 691.684 542.895 692.131 542.752 C 693.024 542.466 693.918 542.037 694.96 541.751 C 695.406 541.608 695.704 541.751 695.853 542.18 C 696.002 542.609 695.853 542.895 695.406 543.038 C 694.513 543.324 693.471 543.753 692.577 544.039 C 692.726 544.039 692.577 544.039 692.429 544.039 Z M 702.107 540.035 C 701.809 540.035 701.511 539.892 701.511 539.606 C 701.362 539.32 701.511 538.891 701.809 538.605 C 702.703 538.176 703.596 537.747 704.34 537.318 C 704.638 537.175 705.085 537.175 705.383 537.604 C 705.532 537.89 705.532 538.319 705.085 538.605 C 704.192 539.034 703.298 539.606 702.405 540.035 C 702.256 540.035 702.107 540.035 702.107 540.035 Z M 724.293 536.03 C 723.251 536.03 722.208 535.887 721.315 535.887 C 720.868 535.887 720.57 535.458 720.57 535.172 C 720.57 534.743 721.017 534.457 721.315 534.457 C 722.357 534.6 723.251 534.6 724.293 534.6 C 724.74 534.6 725.037 534.886 725.037 535.315 C 725.037 535.744 724.74 536.03 724.293 536.03 Z M 731.738 535.887 C 731.291 535.887 730.993 535.601 730.993 535.172 C 730.993 534.743 731.291 534.457 731.738 534.457 C 732.78 534.314 733.674 534.314 734.716 534.171 C 735.163 534.171 735.46 534.457 735.609 534.743 C 735.609 535.172 735.311 535.458 735.014 535.601 C 733.822 535.601 732.78 535.744 731.738 535.887 Z M 710.892 534.886 C 710.594 534.886 710.445 534.743 710.296 534.6 C 709.999 534.314 710.147 533.885 710.445 533.599 C 710.296 533.456 710.296 533.17 710.445 533.027 C 710.594 532.598 711.041 532.455 711.339 532.598 C 711.488 532.598 711.636 532.741 711.785 532.741 C 712.083 532.455 712.53 532.169 712.828 532.026 C 713.125 531.74 713.572 531.883 713.87 532.169 C 714.168 532.455 714.019 532.884 713.721 533.17 L 713.572 533.313 C 713.87 533.313 714.019 533.456 714.317 533.456 C 714.763 533.599 714.912 533.885 714.912 534.314 C 714.763 534.743 714.466 534.886 714.019 534.886 C 713.423 534.743 712.828 534.6 712.232 534.457 C 711.934 534.6 711.785 534.743 711.488 535.029 C 711.19 534.743 711.041 534.886 710.892 534.886 Z M 742.012 534.314 C 741.714 534.314 741.416 534.028 741.267 533.742 C 741.118 533.313 741.416 533.027 741.863 532.884 C 742.31 532.741 742.756 532.741 743.352 532.598 C 743.799 532.455 744.394 532.312 744.841 532.312 C 745.288 532.169 745.585 532.455 745.734 532.884 C 745.883 533.313 745.585 533.599 745.139 533.742 C 744.692 533.885 744.096 534.028 743.65 534.028 C 743.203 534.171 742.756 534.171 742.161 534.314 L 742.012 534.314 Z M 752.137 531.74 C 751.839 531.74 751.541 531.597 751.393 531.311 C 751.244 530.882 751.541 530.596 751.839 530.453 C 752.733 530.167 753.775 529.881 754.668 529.595 C 755.115 529.452 755.413 529.595 755.562 530.024 C 755.711 530.453 755.562 530.739 755.115 530.882 C 754.222 531.168 753.179 531.454 752.286 531.74 L 752.137 531.74 Z M 704.34 530.882 C 704.192 530.882 704.043 530.882 703.894 530.739 C 703 530.31 702.107 529.738 701.362 529.166 C 701.065 528.88 700.916 528.451 701.214 528.165 C 701.511 527.879 701.958 527.736 702.256 528.022 C 703 528.594 703.894 529.023 704.787 529.595 C 705.085 529.738 705.234 530.167 705.085 530.596 C 704.787 530.882 704.638 530.882 704.34 530.882 Z M 761.815 528.308 C 761.518 528.308 761.22 528.165 761.071 527.879 C 760.922 527.45 761.071 527.164 761.518 526.878 C 762.411 526.449 763.304 526.163 764.198 525.734 C 764.645 525.591 764.942 525.734 765.24 526.02 C 765.389 526.449 765.24 526.735 764.942 527.021 C 764.049 527.45 763.156 527.736 762.262 528.165 C 762.113 528.308 761.964 528.308 761.815 528.308 Z M 718.635 528.165 C 718.486 528.165 718.337 528.165 718.188 528.022 C 717.89 527.736 717.89 527.307 718.188 527.021 C 718.784 526.306 719.528 525.591 720.124 524.876 C 720.422 524.59 720.868 524.447 721.166 524.733 C 721.464 525.019 721.613 525.448 721.315 525.734 C 720.719 526.449 720.124 527.307 719.379 528.022 C 718.933 528.022 718.784 528.165 718.635 528.165 Z M 696.151 524.733 C 696.002 524.733 695.704 524.59 695.555 524.447 C 694.811 523.731 694.215 523.016 693.62 522.158 C 693.322 521.872 693.471 521.443 693.769 521.157 C 694.066 520.871 694.513 521.014 694.811 521.3 C 695.406 522.015 696.002 522.73 696.747 523.445 C 697.044 523.731 697.044 524.161 696.747 524.447 C 696.598 524.59 696.449 524.733 696.151 524.733 Z M 771.196 524.018 C 770.898 524.018 770.6 523.875 770.6 523.588 C 770.452 523.302 770.6 522.873 770.898 522.587 C 771.792 522.158 772.685 521.729 773.43 521.157 C 773.727 521.014 774.174 521.014 774.472 521.443 C 774.621 521.729 774.621 522.158 774.174 522.444 C 773.281 522.873 772.387 523.445 771.494 523.875 C 771.494 524.018 771.345 524.018 771.196 524.018 Z M 724.442 519.87 C 724.293 519.87 724.293 519.87 724.144 519.727 C 723.846 519.584 723.548 519.155 723.846 518.726 C 724.293 517.868 724.591 517.01 725.037 516.152 C 725.186 515.723 725.633 515.58 725.931 515.723 C 726.377 515.866 726.526 516.295 726.377 516.581 C 726.08 517.439 725.633 518.44 725.186 519.298 C 724.888 519.727 724.74 519.87 724.442 519.87 Z M 780.13 518.869 C 779.832 518.869 779.683 518.726 779.534 518.583 C 779.237 518.297 779.386 517.868 779.683 517.582 C 780.577 517.01 781.321 516.581 782.066 516.009 C 782.364 515.723 782.81 515.866 783.108 516.152 C 783.406 516.438 783.257 516.867 782.959 517.153 C 782.215 517.725 781.321 518.297 780.428 518.726 C 780.428 518.726 780.279 518.869 780.13 518.869 Z M 690.493 516.295 C 690.195 516.295 689.897 516.152 689.748 515.866 C 689.302 515.008 689.004 514.007 688.706 513.149 C 688.557 512.72 688.855 512.434 689.153 512.291 C 689.599 512.148 689.897 512.434 690.046 512.72 C 690.344 513.578 690.642 514.436 690.94 515.294 C 691.088 515.723 690.94 516.009 690.493 516.295 C 690.642 516.295 690.791 516.295 690.493 516.295 Z M 788.617 512.863 C 788.468 512.863 788.171 512.72 788.022 512.577 C 787.724 512.291 787.873 511.862 788.171 511.576 C 788.915 511.003 789.66 510.431 790.404 509.716 C 790.702 509.43 791.149 509.43 791.446 509.859 C 791.744 510.145 791.744 510.574 791.297 510.86 C 790.553 511.433 789.808 512.148 789.064 512.72 C 788.915 512.863 788.766 512.863 788.617 512.863 Z M 727.271 510.288 C 726.824 510.288 726.526 509.859 726.526 509.573 C 726.526 508.858 726.675 508.286 726.675 507.571 C 726.675 507.285 726.675 507.142 726.675 506.856 C 726.675 506.427 726.973 506.141 727.42 506.141 C 727.866 506.141 728.164 506.427 728.164 506.856 C 728.164 507.142 728.164 507.428 728.164 507.571 C 728.164 508.286 728.164 509.001 728.015 509.716 C 728.015 510.002 727.718 510.288 727.271 510.288 Z M 688.706 506.57 C 688.259 506.57 687.962 506.284 687.962 505.855 C 687.962 504.854 688.11 503.853 688.259 502.852 C 688.408 502.423 688.706 502.28 689.153 502.28 C 689.599 502.423 689.748 502.709 689.748 503.138 C 689.599 503.996 689.451 504.997 689.451 505.855 C 689.451 506.284 689.004 506.57 688.706 506.57 Z M 796.36 506.284 C 796.211 506.284 795.913 506.141 795.764 506.141 C 795.467 505.855 795.467 505.426 795.764 505.14 C 796.509 504.425 797.104 503.853 797.849 503.138 C 798.147 502.852 798.593 502.852 798.891 503.138 C 799.189 503.424 799.189 503.853 798.891 504.139 C 798.147 504.854 797.551 505.569 796.807 506.141 C 796.807 506.141 796.509 506.284 796.36 506.284 Z M 726.08 500.421 C 725.782 500.421 725.484 500.278 725.335 499.992 C 725.037 499.134 724.591 498.275 724.144 497.417 C 723.995 497.131 724.144 496.702 724.442 496.416 C 724.74 496.273 725.186 496.416 725.484 496.702 C 725.931 497.56 726.377 498.561 726.675 499.42 C 726.824 499.849 726.675 500.135 726.229 500.278 C 726.229 500.421 726.08 500.421 726.08 500.421 Z M 691.684 497.131 C 691.535 497.131 691.386 497.131 691.237 496.988 C 690.94 496.845 690.791 496.416 690.94 495.987 C 691.386 495.129 691.982 494.271 692.726 493.556 C 693.024 493.27 693.471 493.127 693.769 493.413 C 694.066 493.699 694.215 494.128 693.918 494.414 C 693.322 495.129 692.726 495.987 692.28 496.702 C 692.131 496.988 691.982 497.131 691.684 497.131 Z M 720.57 491.983 C 720.422 491.983 720.124 491.983 719.975 491.84 C 719.23 491.125 718.486 490.553 717.741 490.124 C 717.444 489.838 717.295 489.409 717.592 489.123 C 717.89 488.837 718.337 488.694 718.635 488.98 C 719.379 489.552 720.273 490.267 721.017 490.839 C 721.315 491.125 721.315 491.554 721.017 491.84 C 720.868 491.983 720.719 491.983 720.57 491.983 Z M 698.682 489.838 C 698.384 489.838 698.236 489.695 698.087 489.552 C 697.789 489.266 697.938 488.837 698.236 488.551 C 699.129 487.979 700.022 487.55 700.916 487.121 C 701.214 486.978 701.66 487.121 701.958 487.407 C 702.107 487.836 701.958 488.122 701.66 488.408 C 700.767 488.837 700.022 489.266 699.129 489.695 C 698.98 489.838 698.831 489.838 698.682 489.838 Z M 711.488 487.264 C 711.041 487.264 710.892 487.121 710.594 487.121 C 709.85 486.978 709.254 486.978 708.51 486.978 C 708.063 486.978 707.765 486.692 707.765 486.262 C 707.765 485.833 708.063 485.547 708.51 485.547 C 709.254 485.547 709.999 485.547 710.743 485.69 C 711.041 485.69 711.339 485.833 711.636 485.833 C 712.083 485.976 712.232 486.262 712.232 486.692 C 712.232 486.978 711.934 487.264 711.488 487.264 Z" stroke-linecap="round" />
</g>
</g>
</g>
</svg>